<?xml version="1.0" encoding="UTF-8"?>
<svg id="Layer_1" data-name="Layer 1" xmlns="http://www.w3.org/2000/svg" width="241" height="221" viewBox="0 0 241 221">
  <defs>
    <style>
      .cls-1 {
        stroke-width: 0px;
      }
    </style>
  </defs>
  <path class="cls-1" d="m220.5,71l.207-.207.146.061,20-20,.146-.354V.5l-.5-.5h-100l-.354.146-19.146,19.146V.5l-.5-.5H20.5l-.354.146L.146,20.146l.061.146-.207.207v50l.5.5h49.5v49.5c0,8.521-2.165,16.546-5.972,23.554-7.181,3.888-15.311,5.946-23.528,5.946l-.354.146L.146,170.146l.061.146-.207.207v50l.5.5c30.921,0,58.621-14.041,77.071-36.077l.126.105,11.751-11.416c.763-.719,1.516-1.448,2.313-2.251,15.371-15.456,25.238-35.444,28.238-56.86v5.998c0,55.416,45.084,100.5,100.5,100.5l.207-.207.146.061,20-20,.146-.354v-50l-.5-.5c-27.294,0-49.5-22.206-49.5-49.5v-29.5h29.5Zm-120.5,49.5c0,1.326-.033,2.65-.086,3.971-.007.165-.012.33-.019.494-.061,1.351-.147,2.7-.263,4.045-.002.022-.004.043-.006.065-1.105,12.695-4.65,25.061-10.378,36.384-.026.051-.05.103-.076.154-.499.982-1.027,1.95-1.559,2.916-.358.647-.722,1.289-1.094,1.927-.293.505-.589,1.008-.891,1.508-17.378,28.638-48.794,47.856-84.628,48.034v-49.001c.123-.001.244-.011.366-.013.61-.01,1.217-.032,1.823-.064.187-.01.375-.017.562-.029.711-.046,1.418-.107,2.122-.182.238-.025.474-.056.711-.085.508-.062,1.015-.131,1.519-.207.257-.039.514-.076.77-.118.653-.11,1.302-.231,1.947-.366.271-.057.539-.12.809-.181.45-.102.898-.209,1.344-.323.272-.069.544-.137.813-.211.64-.174,1.275-.36,1.906-.559.203-.064.403-.134.605-.201.519-.171,1.035-.35,1.548-.538.188-.069.377-.137.565-.208.69-.262,1.374-.536,2.051-.827.001,0,.003-.001.004-.002.729-.314,1.448-.649,2.161-.996.03-.014.059-.029.089-.043,9.229-4.523,17.033-11.832,22.14-21.189l-.015-.015c3.923-7.177,6.159-15.402,6.159-24.141v-50l-.5-.5H1V21h99v99.5Zm120,50.498v49.001c-54.635-.271-99-44.802-99-99.499V21h99v49h-49.5l-.5.5v50c0,27.68,22.383,50.229,50,50.498Z"/>
</svg>